# xmcd
#
# Track frame offsets: 
#        150
#        17833
#        42030
#        64654
#        90123
#        114766
#        155378
#        177641
#        197727
#        234924
#        260171
#
# Disc length: 4017 seconds
#
# Revision: 0
# Processed by: cddbd v1.5.2PL0 Copyright (c) Steve Scherf et al.
# Submitted via: ExactAudioCopy v0.99pb4
#
DISCID=820faf0b
DTITLE=The Paul Garner Band - What Colour Will You See
DYEAR=2009
DGENRE=Blues
TTITLE0=Hope In The Girl
TTITLE1=Guest House Blues
TTITLE2=Smooth Operator
TTITLE3=Love Come Tumbling Down
TTITLE4=The Eagles
TTITLE5=Silver Bullet
TTITLE6=Should Have Thought Twice
TTITLE7=Mosquito Coil
TTITLE8=Havana Brown
TTITLE9=(I've Got My) Mojo Workin'
TTITLE10=Hoochie Coochie Man
EXTD=
EXTT0=
EXTT1=
EXTT2=
EXTT3=
EXTT4=
EXTT5=
EXTT6=
EXTT7=
EXTT8=
EXTT9=
EXTT10=
PLAYORDER=
